<mxfile host="app.diagrams.net" agent="Mozilla/5.0 (Windows NT 10.0; Win64; x64) AppleWebKit/537.36 (KHTML, like Gecko) Chrome/109.0.0.0 Safari/537.36" version="24.9.1">
  <diagram name="Página-1" id="_vU0hxC2ekmU5fk1ocDM">
    <mxGraphModel dx="2021" dy="1913" grid="1" gridSize="10" guides="1" tooltips="1" connect="1" arrows="1" fold="1" page="1" pageScale="1" pageWidth="827" pageHeight="1169" math="0" shadow="0">
      <root>
        <mxCell id="0" />
        <mxCell id="1" parent="0" />
        <mxCell id="U98z-Co56kHbol0TYBDU-2" value="Garçom" style="swimlane;fontStyle=1;align=center;verticalAlign=top;childLayout=stackLayout;horizontal=1;startSize=26;horizontalStack=0;resizeParent=1;resizeParentMax=0;resizeLast=0;collapsible=1;marginBottom=0;whiteSpace=wrap;html=1;fillColor=#BAC8D3;" vertex="1" parent="1">
          <mxGeometry x="-520" y="-610" width="250" height="160" as="geometry" />
        </mxCell>
        <mxCell id="U98z-Co56kHbol0TYBDU-3" value="- registroGarcom; String&lt;div&gt;- salarioBaseGarcom: double&lt;/div&gt;&lt;div&gt;- gorjetaGarcom: double&amp;nbsp;&lt;/div&gt;&lt;div&gt;- mesasResponsavel: Mesa&lt;/div&gt;" style="text;strokeColor=none;fillColor=none;align=left;verticalAlign=middle;spacingLeft=4;spacingRight=4;overflow=hidden;rotatable=0;points=[[0,0.5],[1,0.5]];portConstraint=eastwest;whiteSpace=wrap;html=1;" vertex="1" parent="U98z-Co56kHbol0TYBDU-2">
          <mxGeometry y="26" width="250" height="64" as="geometry" />
        </mxCell>
        <mxCell id="U98z-Co56kHbol0TYBDU-4" value="" style="line;strokeWidth=1;fillColor=none;align=left;verticalAlign=middle;spacingTop=-1;spacingLeft=3;spacingRight=3;rotatable=0;labelPosition=right;points=[];portConstraint=eastwest;strokeColor=inherit;" vertex="1" parent="U98z-Co56kHbol0TYBDU-2">
          <mxGeometry y="90" width="250" height="8" as="geometry" />
        </mxCell>
        <mxCell id="U98z-Co56kHbol0TYBDU-5" value="+ adicionarMesa(Mesa mesa)&lt;div&gt;+ removerMesa(Mesa mesa)&lt;/div&gt;&lt;div&gt;+ registrarPedido(double valorPedido)&lt;/div&gt;&lt;div&gt;+ salarioFinalGarcom()&lt;/div&gt;" style="text;strokeColor=none;fillColor=none;align=left;verticalAlign=middle;spacingLeft=4;spacingRight=4;overflow=hidden;rotatable=0;points=[[0,0.5],[1,0.5]];portConstraint=eastwest;whiteSpace=wrap;html=1;" vertex="1" parent="U98z-Co56kHbol0TYBDU-2">
          <mxGeometry y="98" width="250" height="62" as="geometry" />
        </mxCell>
        <mxCell id="U98z-Co56kHbol0TYBDU-6" value="Usuário" style="swimlane;fontStyle=1;align=center;verticalAlign=middle;childLayout=stackLayout;horizontal=1;startSize=26;horizontalStack=0;resizeParent=1;resizeParentMax=0;resizeLast=0;collapsible=1;marginBottom=0;whiteSpace=wrap;html=1;fillColor=#94A8B8;" vertex="1" parent="1">
          <mxGeometry x="-650" y="-360" width="250" height="60" as="geometry" />
        </mxCell>
        <mxCell id="U98z-Co56kHbol0TYBDU-7" value="- nome: String&lt;div&gt;- email: String&lt;/div&gt;&lt;div&gt;&lt;br&gt;&lt;/div&gt;" style="text;strokeColor=none;fillColor=none;align=left;verticalAlign=middle;spacingLeft=4;spacingRight=4;overflow=hidden;rotatable=0;points=[[0,0.5],[1,0.5]];portConstraint=eastwest;whiteSpace=wrap;html=1;" vertex="1" parent="U98z-Co56kHbol0TYBDU-6">
          <mxGeometry y="26" width="250" height="34" as="geometry" />
        </mxCell>
        <mxCell id="U98z-Co56kHbol0TYBDU-8" style="edgeStyle=orthogonalEdgeStyle;rounded=0;orthogonalLoop=1;jettySize=auto;html=1;exitX=0.5;exitY=0;exitDx=0;exitDy=0;entryX=0.5;entryY=1;entryDx=0;entryDy=0;entryPerimeter=0;" edge="1" parent="1" source="U98z-Co56kHbol0TYBDU-6" target="U98z-Co56kHbol0TYBDU-5">
          <mxGeometry relative="1" as="geometry" />
        </mxCell>
        <mxCell id="U98z-Co56kHbol0TYBDU-10" value="&lt;p style=&quot;margin:0px;margin-top:4px;text-align:center;&quot;&gt;&lt;i&gt;&amp;lt;&amp;lt;Interface&amp;gt;&amp;gt;&lt;/i&gt;&lt;br&gt;&lt;b&gt;Observer&lt;/b&gt;&lt;/p&gt;&lt;hr size=&quot;1&quot; style=&quot;border-style:solid;&quot;&gt;&lt;p style=&quot;margin:0px;margin-left:4px;&quot;&gt;+ update (Subject: s): void&lt;br&gt;&lt;/p&gt;" style="verticalAlign=top;align=left;overflow=fill;html=1;whiteSpace=wrap;" vertex="1" parent="1">
          <mxGeometry x="-360" y="-360" width="190" height="70" as="geometry" />
        </mxCell>
        <mxCell id="U98z-Co56kHbol0TYBDU-11" style="edgeStyle=orthogonalEdgeStyle;rounded=0;orthogonalLoop=1;jettySize=auto;html=1;exitX=0.5;exitY=0;exitDx=0;exitDy=0;entryX=0.536;entryY=1.016;entryDx=0;entryDy=0;entryPerimeter=0;dashed=1;dashPattern=8 8;" edge="1" parent="1" source="U98z-Co56kHbol0TYBDU-10" target="U98z-Co56kHbol0TYBDU-5">
          <mxGeometry relative="1" as="geometry" />
        </mxCell>
      </root>
    </mxGraphModel>
  </diagram>
</mxfile>
